<svg xmlns="http://www.w3.org/2000/svg" xmlns:xlink="http://www.w3.org/1999/xlink"
  style="display:none">

  <!-- home -->
  <symbol id="home">
    <path fill="currentColor"
      d="M11.336 2.253a1 1 0 0 1 1.328 0l9 8a1 1 0 0 1-1.328 1.494L20 11.45V19a2 2 0 0 1-2 2H6a2 2 0 0 1-2-2v-7.55l-.336.297a1 1 0 0 1-1.328-1.494zM6 9.67V19h3v-5a1 1 0 0 1 1-1h4a1 1 0 0 1 1 1v5h3V9.671l-6-5.333zM13 19v-4h-2v4z" />
  </symbol>

  <symbol id="arrowbottom">
    <path fill-rule="evenodd"
      d="M5.22 8.22a.75.75 0 0 1 1.06 0L10 11.94l3.72-3.72a.75.75 0 1 1 1.06 1.06l-4.25 4.25a.75.75 0 0 1-1.06 0L5.22 9.28a.75.75 0 0 1 0-1.06Z"
      clip-rule="evenodd" />
  </symbol>

  <symbol id="user">
    <g fill="none" stroke="currentColor" stroke-linecap="round" stroke-linejoin="round"
      stroke-width="2">
      <path d="M19 21v-2a4 4 0 0 0-4-4H9a4 4 0 0 0-4 4v2" />
      <circle cx="12" cy="7" r="4" />
    </g>
  </symbol>

  <symbol id="goout">
    <path fill="#DF3636"
      d="M5 21q-.825 0-1.412-.587T3 19V5q0-.825.588-1.412T5 3h6q.425 0 .713.288T12 4t-.288.713T11 5H5v14h6q.425 0 .713.288T12 20t-.288.713T11 21zm12.175-8H10q-.425 0-.712-.288T9 12t.288-.712T10 11h7.175L15.3 9.125q-.275-.275-.275-.675t.275-.7t.7-.313t.725.288L20.3 11.3q.3.3.3.7t-.3.7l-3.575 3.575q-.3.3-.712.288t-.713-.313q-.275-.3-.262-.712t.287-.688z" />
  </symbol>
  <symbol id="google">
    <path fill="#ffc107"
      d="M43.611 20.083H42V20H24v8h11.303c-1.649 4.657-6.08 8-11.303 8c-6.627 0-12-5.373-12-12s5.373-12 12-12c3.059 0 5.842 1.154 7.961 3.039l5.657-5.657C34.046 6.053 29.268 4 24 4C12.955 4 4 12.955 4 24s8.955 20 20 20s20-8.955 20-20c0-1.341-.138-2.65-.389-3.917" />
    <path fill="#ff3d00"
      d="m6.306 14.691l6.571 4.819C14.655 15.108 18.961 12 24 12c3.059 0 5.842 1.154 7.961 3.039l5.657-5.657C34.046 6.053 29.268 4 24 4C16.318 4 9.656 8.337 6.306 14.691" />
    <path fill="#4caf50"
      d="M24 44c5.166 0 9.86-1.977 13.409-5.192l-6.19-5.238A11.9 11.9 0 0 1 24 36c-5.202 0-9.619-3.317-11.283-7.946l-6.522 5.025C9.505 39.556 16.227 44 24 44" />
    <path fill="#1976d2"
      d="M43.611 20.083H42V20H24v8h11.303a12.04 12.04 0 0 1-4.087 5.571l.003-.002l6.19 5.238C36.971 39.205 44 34 44 24c0-1.341-.138-2.65-.389-3.917" />
  </symbol>
  <!-- ocultar contraseña -->
  <symbol id="eyeslash">
    <path fill="currentColor"
      d="M17.883 19.297A10.95 10.95 0 0 1 12 21c-5.392 0-9.878-3.88-10.818-9A11 11 0 0 1 4.52 5.935L1.394 2.808l1.414-1.414l19.799 19.798l-1.414 1.415zM5.936 7.35A8.97 8.97 0 0 0 3.223 12a9.005 9.005 0 0 0 13.201 5.838l-2.028-2.028A4.5 4.5 0 0 1 8.19 9.604zm6.978 6.978l-3.242-3.241a2.5 2.5 0 0 0 3.241 3.241m7.893 2.265l-1.431-1.431A8.9 8.9 0 0 0 20.778 12A9.005 9.005 0 0 0 9.552 5.338L7.974 3.76C9.221 3.27 10.58 3 12 3c5.392 0 9.878 3.88 10.819 9a10.95 10.95 0 0 1-2.012 4.593m-9.084-9.084Q11.86 7.5 12 7.5a4.5 4.5 0 0 1 4.492 4.778z" />
  </symbol>
  <!-- mostrar contraseña -->
  <symbol id="eye">
    <g fill="none" stroke="currentColor" stroke-width="1.5">
      <path
        d="M3.275 15.296C2.425 14.192 2 13.639 2 12c0-1.64.425-2.191 1.275-3.296C4.972 6.5 7.818 4 12 4s7.028 2.5 8.725 4.704C21.575 9.81 22 10.361 22 12c0 1.64-.425 2.191-1.275 3.296C19.028 17.5 16.182 20 12 20s-7.028-2.5-8.725-4.704Z" />
      <path d="M15 12a3 3 0 1 1-6 0a3 3 0 0 1 6 0Z" />
    </g>
  </symbol>

  <symbol id="alert">
    <g fill="none">
      <path
        d="m12.593 23.258l-.011.002l-.071.035l-.02.004l-.014-.004l-.071-.035q-.016-.005-.024.005l-.004.01l-.017.428l.005.02l.01.013l.104.074l.015.004l.012-.004l.104-.074l.012-.016l.004-.017l-.017-.427q-.004-.016-.017-.018m.265-.113l-.013.002l-.185.093l-.01.01l-.003.011l.018.43l.005.012l.008.007l.201.093q.019.005.029-.008l.004-.014l-.034-.614q-.005-.018-.02-.022m-.715.002a.02.02 0 0 0-.027.006l-.006.014l-.034.614q.001.018.017.024l.015-.002l.201-.093l.01-.008l.004-.011l.017-.43l-.003-.012l-.01-.01z" />
      <path fill="#ffc900"
        d="m13.299 3.148l8.634 14.954a1.5 1.5 0 0 1-1.299 2.25H3.366a1.5 1.5 0 0 1-1.299-2.25l8.634-14.954c.577-1 2.02-1 2.598 0M12 15a1 1 0 1 0 0 2a1 1 0 0 0 0-2m0-7a1 1 0 0 0-.993.883L11 9v4a1 1 0 0 0 1.993.117L13 13V9a1 1 0 0 0-1-1" />
    </g>
  </symbol>
  <symbol id="error">
    <path d="M10 0a10 10 0 1 0 10 10A10 10 0 0 0 10 0Zm1 15H9v-2h2Zm0-4H9V5h2Z" />
  </symbol>
  <symbol id="spinner">
    <defs>
      <linearGradient x1="0%" y1="100%" x2="100%" y2="100%" id="linearGradient-1">
        <stop stop-color="white" stop-opacity="0" offset="0%"></stop>
        <stop stop-color="white" stop-opacity="0.50" offset="39.9430698%"></stop>
        <stop stop-color="white" offset="100%"></stop>
      </linearGradient>
    </defs>
    <g stroke="none" stroke-width="1" fill="none" fill-rule="evenodd">
      <rect fill-opacity="0.01" fill="none" x="0" y="0" width="36" height="36"></rect>
      <path
        d="M34,18 C34,9.163444 26.836556,2 18,2 C11.6597233,2 6.18078805,5.68784135 3.59122325,11.0354951"
        stroke="url(#linearGradient-1)" stroke-width="4" stroke-linecap="round"></path>
    </g>
  </symbol>
  <symbol id="fire">
    <path fill="currentColor"
      d="M834.1 469.2A347.5 347.5 0 0 0 751.2 354l-29.1-26.7a8.09 8.09 0 0 0-13 3.3l-13 37.3c-8.1 23.4-23 47.3-44.1 70.8c-1.4 1.5-3 1.9-4.1 2s-2.8-.1-4.3-1.5c-1.4-1.2-2.1-3-2-4.8c3.7-60.2-14.3-128.1-53.7-202C555.3 171 510 123.1 453.4 89.7l-41.3-24.3c-5.4-3.2-12.3 1-12 7.3l2.2 48c1.5 32.8-2.3 61.8-11.3 85.9c-11 29.5-26.8 56.9-47 81.5a295.6 295.6 0 0 1-47.5 46.1a352.6 352.6 0 0 0-100.3 121.5A347.75 347.75 0 0 0 160 610c0 47.2 9.3 92.9 27.7 136a349.4 349.4 0 0 0 75.5 110.9c32.4 32 70 57.2 111.9 74.7C418.5 949.8 464.5 959 512 959s93.5-9.2 136.9-27.3A348.6 348.6 0 0 0 760.8 857c32.4-32 57.8-69.4 75.5-110.9a344.2 344.2 0 0 0 27.7-136c0-48.8-10-96.2-29.9-140.9M713 808.5c-53.7 53.2-125 82.4-201 82.4s-147.3-29.2-201-82.4c-53.5-53.1-83-123.5-83-198.4c0-43.5 9.8-85.2 29.1-124c18.8-37.9 46.8-71.8 80.8-97.9a349.6 349.6 0 0 0 58.6-56.8c25-30.5 44.6-64.5 58.2-101a240 240 0 0 0 12.1-46.5c24.1 22.2 44.3 49 61.2 80.4c33.4 62.6 48.8 118.3 45.8 165.7a74.01 74.01 0 0 0 24.4 59.8a73.36 73.36 0 0 0 53.4 18.8c19.7-1 37.8-9.7 51-24.4c13.3-14.9 24.8-30.1 34.4-45.6c14 17.9 25.7 37.4 35 58.4c15.9 35.8 24 73.9 24 113.1c0 74.9-29.5 145.4-83 198.4" />
  </symbol>
  <symbol id="fire2">
    <path fill="currentColor"
      d="M5.016 16c-1.066-2.219-.498-3.49.321-4.688c.897-1.312 1.129-2.61 1.129-2.61s.706.917.423 2.352c1.246-1.387 1.482-3.598 1.293-4.445c2.817 1.969 4.021 6.232 2.399 9.392c8.631-4.883 2.147-12.19 1.018-13.013c.376.823.448 2.216-.313 2.893C9.999 1.002 6.818.002 6.818.002c.376 2.516-1.364 5.268-3.042 7.324c-.059-1.003-.122-1.696-.649-2.656c-.118 1.823-1.511 3.309-1.889 5.135c-.511 2.473.383 4.284 3.777 6.197z" />
  </symbol>

  <symbol id="ubication">
    <defs>
      <mask id="ipSLocalTwo0">
        <g fill="none" stroke-linejoin="round" stroke-width="4">
          <path fill="#fff" stroke="#fff"
            d="M24 44s15-12 15-25c0-8.284-6.716-15-15-15S9 10.716 9 19c0 13 15 25 15 25Z" />
          <path fill="#000" stroke="#000" d="M24 25a6 6 0 1 0 0-12a6 6 0 0 0 0 12Z" />
        </g>
      </mask>
    </defs>
    <path fill="currentColor" d="M0 0h48v48H0z" mask="url(#ipSLocalTwo0)" />
  </symbol>

  <symbol id="security">
    <path fill="currentColor" d="M14 16.59L11.41 14L10 15.41l4 4l8-8L20.59 10z" />
    <path fill="currentColor"
      d="m16 30l-6.176-3.293A10.98 10.98 0 0 1 4 17V4a2 2 0 0 1 2-2h20a2 2 0 0 1 2 2v13a10.98 10.98 0 0 1-5.824 9.707ZM6 4v13a8.99 8.99 0 0 0 4.766 7.942L16 27.733l5.234-2.79A8.99 8.99 0 0 0 26 17V4Z" />
  </symbol>

  <symbol id="reload">
<path fill="none" stroke="currentColor" stroke-linecap="round" stroke-linejoin="round" stroke-width="2" d="M10 16H5v5m9-13h5V3M4.583 9.003a8 8 0 0 1 14.331-1.027m.504 7.021a8 8 0 0 1-14.332 1.027"/>
  </symbol>

  <symbol id="search">
<g fill="none" fill-rule="evenodd"><path d="m12.593 23.258l-.011.002l-.071.035l-.02.004l-.014-.004l-.071-.035q-.016-.005-.024.005l-.004.01l-.017.428l.005.02l.01.013l.104.074l.015.004l.012-.004l.104-.074l.012-.016l.004-.017l-.017-.427q-.004-.016-.017-.018m.265-.113l-.013.002l-.185.093l-.01.01l-.003.011l.018.43l.005.012l.008.007l.201.093q.019.005.029-.008l.004-.014l-.034-.614q-.005-.018-.02-.022m-.715.002a.02.02 0 0 0-.027.006l-.006.014l-.034.614q.001.018.017.024l.015-.002l.201-.093l.01-.008l.004-.011l.017-.43l-.003-.012l-.01-.01z"/><path fill="currentColor" d="M10.5 2a8.5 8.5 0 1 0 5.262 15.176l3.652 3.652a1 1 0 0 0 1.414-1.414l-3.652-3.652A8.5 8.5 0 0 0 10.5 2M4 10.5a6.5 6.5 0 1 1 13 0a6.5 6.5 0 0 1-13 0"/></g>
  </symbol>

  <symbol id="">

  </symbol>

  <symbol id="">

  </symbol>

</svg>
